<svg width="22" height="20" viewBox="0 0 22 20" fill="none" xmlns="http://www.w3.org/2000/svg">
<path d="M21.5 19.191V10C21.5 8.067 19.933 6.5 18 6.5H10C8.067 6.5 6.5 8.067 6.5 10V14C6.5 15.933 8.067 17.5 10 17.5H18C18.0776 17.5 18.1542 17.5181 18.2236 17.5528L21.5 19.191Z" stroke="#0A4ECB" stroke-linecap="round" stroke-linejoin="round"/>
<path d="M0.5 16.191V4C0.5 2.067 2.067 0.5 4 0.5H14C15.933 0.5 17.5 2.067 17.5 4V10C17.5 11.933 15.933 13.5 14 13.5H6C5.92238 13.5 5.84582 13.5181 5.77639 13.5528L0.5 16.191Z" fill="white" stroke="#0A4ECB" stroke-linecap="round" stroke-linejoin="round"/>
<path d="M5.5 5.5H12.5M5.5 8.5H9.5" stroke="#0A4ECB" stroke-linecap="round"/>
</svg>
