<svg width="60" height="60" viewBox="0 0 60 60" fill="none" xmlns="http://www.w3.org/2000/svg">
<path d="M29.9999 1.875C25.0297 1.87604 20.1485 3.19389 15.8531 5.69442C11.5577 8.19496 8.00148 11.7889 5.5464 16.1104C3.09133 20.432 1.82505 25.3268 1.87645 30.2968C1.92786 35.2668 3.29511 40.1344 5.83905 44.4042C5.71096 44.5594 5.63629 44.7518 5.6261 44.9528C5.6159 45.1538 5.67073 45.3527 5.78244 45.5201L6.84416 47.1127L2.3301 49.8211C2.16783 49.9184 2.03881 50.0626 1.96002 50.2347C1.88122 50.4067 1.85634 50.5986 1.88863 50.785C1.92093 50.9715 2.00889 51.1438 2.14096 51.2793C2.27303 51.4149 2.44302 51.5072 2.62858 51.5443L6.52002 52.3226L6.25951 57.1368C6.25031 57.3067 6.28756 57.476 6.36727 57.6265C6.44699 57.7769 6.56616 57.9028 6.712 57.9906C6.85783 58.0784 7.02483 58.1249 7.19507 58.125C7.36531 58.1251 7.53236 58.0788 7.6783 57.9912L14.8385 53.6904C19.3654 56.5858 24.6267 58.1245 30.0004 58.1245C35.374 58.1245 40.6353 56.5858 45.1622 53.6904L52.3224 57.9912C52.4683 58.0788 52.6354 58.1251 52.8056 58.125C52.9759 58.1249 53.1429 58.0784 53.2887 57.9906C53.4345 57.9028 53.5537 57.7769 53.6334 57.6265C53.7132 57.476 53.7504 57.3067 53.7412 57.1368L53.4807 52.3226L57.3721 51.5443C57.5577 51.5072 57.7277 51.4149 57.8597 51.2793C57.9918 51.1438 58.0798 50.9715 58.1121 50.785C58.1444 50.5986 58.1195 50.4067 58.0407 50.2347C57.9619 50.0626 57.8329 49.9184 57.6706 49.8211L53.1562 47.1127L54.2179 45.5201C54.3297 45.3526 54.3845 45.1536 54.3742 44.9526C54.364 44.7515 54.2893 44.5591 54.1611 44.4039C56.7059 40.1342 58.0738 35.2664 58.1256 30.2961C58.1774 25.3259 56.9112 20.4306 54.4559 16.1088C52.0006 11.787 48.444 8.19303 44.1481 5.69274C39.8522 3.19244 34.9705 1.87516 29.9999 1.875ZM10.5901 44.1067C16.6475 41.1992 23.2808 39.6896 29.9999 39.6896C36.7191 39.6896 43.3524 41.1992 49.4098 44.1067L52.0583 45.3782L49.3532 49.4358C43.276 46.6703 36.6766 45.2393 29.9997 45.2393C23.3228 45.2393 16.7234 46.6703 10.6462 49.4358L7.94127 45.3782L10.5901 44.1067ZM29.9999 37.8146C24.7039 37.8221 19.4472 38.7239 14.4515 40.4822C12.3558 37.389 11.2401 33.7363 11.2499 30C11.2499 19.6611 19.6611 11.25 29.9999 11.25C40.3388 11.25 48.7499 19.6611 48.7499 30C48.7589 33.7362 47.6431 37.3886 45.5478 40.482C40.5523 38.7238 35.2958 37.8221 29.9999 37.8146ZM36.4886 47.5927C32.3003 49.1358 27.6992 49.1358 23.5109 47.5927C27.8133 46.9548 32.1862 46.9548 36.4886 47.5927ZM8.22721 55.4743L8.43604 51.6132C8.44825 51.3881 8.37893 51.1661 8.24077 50.988C8.10262 50.8098 7.90489 50.6874 7.68381 50.6432L5.37416 50.1813L7.88549 48.6745L9.53244 51.1451C9.65747 51.3326 9.84587 51.4688 10.0631 51.5287C10.2804 51.5887 10.512 51.5683 10.7155 51.4714C11.343 51.1726 11.9778 50.8889 12.6201 50.6203L13.6748 52.2023L8.22721 55.4743ZM15.8533 52.1146C15.8325 52.0678 15.808 52.0227 15.7799 51.9799L14.4046 49.9174C16.3197 49.2097 18.2804 48.6325 20.2734 48.1895C23.2661 49.7885 26.6068 50.6251 29.9999 50.6251C33.393 50.6251 36.7338 49.7885 39.7265 48.1895C41.7195 48.6322 43.6803 49.2093 45.5954 49.9168L44.2201 51.9793C44.192 52.0221 44.1675 52.0671 44.1468 52.1139C39.9226 54.8143 35.0137 56.2494 30.0001 56.2494C24.9865 56.2494 20.0776 54.8143 15.8534 52.1139L15.8533 52.1146ZM54.6257 50.181L52.3161 50.6428C52.095 50.687 51.8973 50.8094 51.7591 50.9876C51.621 51.1658 51.5516 51.3878 51.5638 51.6129L51.7727 55.474L46.3252 52.2023L47.3799 50.6203C48.0215 50.8895 48.6564 51.1732 49.2846 51.4714C49.4881 51.5685 49.7198 51.5889 49.9372 51.529C50.1546 51.469 50.3431 51.3327 50.4681 51.1451L52.1151 48.6745L54.6257 50.181ZM52.5085 43.5139L50.2212 42.416C49.2792 41.9639 48.3217 41.5442 47.3487 41.1568C49.4962 37.8327 50.6342 33.9574 50.6249 30C50.6249 18.6273 41.3726 9.375 29.9999 9.375C18.6272 9.375 9.37494 18.6273 9.37494 30C9.36464 33.9577 10.5024 37.8334 12.6502 41.1575C11.6787 41.545 10.7216 41.9646 9.77912 42.4164L7.49244 43.5139C5.10212 39.5307 3.81165 34.9844 3.75281 30.3394C3.69397 25.6943 4.86886 21.1169 7.15751 17.0743C9.44617 13.0318 12.7666 9.66902 16.7798 7.32934C20.7931 4.98966 25.3553 3.75689 30.0007 3.75689C34.6461 3.75689 39.2084 4.98966 43.2216 7.32934C47.2348 9.66902 50.5552 13.0318 52.8439 17.0743C55.1326 21.1169 56.3074 25.6943 56.2486 30.3394C56.1898 34.9844 54.8993 39.5307 52.509 43.5139H52.5085Z" fill="#FF5C00"/>
<path d="M38.9063 22.5H33.75C33.5014 22.4997 33.2632 22.4009 33.0874 22.2251C32.9116 22.0493 32.8128 21.8111 32.8125 21.5625V18.75C32.8116 18.0043 32.515 17.2895 31.9878 16.7622C31.4605 16.235 30.7457 15.9384 30 15.9375H28.125C27.8764 15.9375 27.6379 16.0363 27.4621 16.2121C27.2863 16.3879 27.1875 16.6264 27.1875 16.875V18.9414C27.1895 19.6496 27.0509 20.3511 26.7799 21.0054C26.5088 21.6596 26.1107 22.2537 25.6085 22.753L24.9241 23.4375H19.6875C19.4389 23.4375 19.2004 23.5363 19.0246 23.7121C18.8488 23.8879 18.75 24.1264 18.75 24.375V34.6875C18.75 34.9361 18.8488 35.1746 19.0246 35.3504C19.2004 35.5262 19.4389 35.625 19.6875 35.625H36.0938C36.4734 35.6251 36.8474 35.533 37.1835 35.3565C37.5197 35.1801 37.8079 34.9247 38.0235 34.6122C38.2391 34.2997 38.3756 33.9395 38.4211 33.5626C38.4667 33.1857 38.42 32.8034 38.2852 32.4485C38.7418 32.1597 39.0845 31.722 39.2554 31.2094C39.4262 30.6969 39.4147 30.141 39.2227 29.636C39.6793 29.3472 40.022 28.9095 40.1929 28.3969C40.3637 27.8844 40.3522 27.3285 40.1602 26.8235C40.589 26.5518 40.9179 26.1482 41.0977 25.6735C41.2774 25.1987 41.2981 24.6785 41.1567 24.1909C41.0153 23.7034 40.7194 23.2749 40.3136 22.97C39.9077 22.6651 39.4139 22.5001 38.9063 22.5ZM20.625 25.3125H24.375V33.75H20.625V25.3125ZM38.9063 25.3125H37.9688C37.7201 25.3125 37.4817 25.4113 37.3058 25.5871C37.13 25.7629 37.0313 26.0014 37.0313 26.25C37.0313 26.4986 37.13 26.7371 37.3058 26.9129C37.4817 27.0887 37.7201 27.1875 37.9688 27.1875C38.0931 27.1875 38.2123 27.2369 38.3002 27.3248C38.3881 27.4127 38.4375 27.5319 38.4375 27.6562C38.4375 27.7806 38.3881 27.8998 38.3002 27.9877C38.2123 28.0756 38.0931 28.125 37.9688 28.125H37.0313C36.7826 28.125 36.5442 28.2238 36.3683 28.3996C36.1925 28.5754 36.0938 28.8139 36.0938 29.0625C36.0938 29.3111 36.1925 29.5496 36.3683 29.7254C36.5442 29.9012 36.7826 30 37.0313 30C37.1556 30 37.2748 30.0494 37.3627 30.1373C37.4506 30.2252 37.5 30.3444 37.5 30.4688C37.5 30.5931 37.4506 30.7123 37.3627 30.8002C37.2748 30.8881 37.1556 30.9375 37.0313 30.9375H36.0938C35.8451 30.9375 35.6067 31.0363 35.4308 31.2121C35.255 31.3879 35.1563 31.6264 35.1563 31.875C35.1563 32.1236 35.255 32.3621 35.4308 32.5379C35.6067 32.7137 35.8451 32.8125 36.0938 32.8125C36.2181 32.8125 36.3373 32.8619 36.4252 32.9498C36.5131 33.0377 36.5625 33.1569 36.5625 33.2812C36.5625 33.4056 36.5131 33.5248 36.4252 33.6127C36.3373 33.7006 36.2181 33.75 36.0938 33.75H26.25V24.7632L26.9345 24.079C27.6113 23.4058 28.1478 22.6052 28.5131 21.7233C28.8783 20.8414 29.0651 19.8959 29.0625 18.9414V17.8125H30C30.2486 17.8128 30.4869 17.9116 30.6626 18.0874C30.8384 18.2632 30.9372 18.5014 30.9375 18.75V21.5625C30.9384 22.3082 31.235 23.023 31.7622 23.5503C32.2895 24.0775 33.0043 24.3741 33.75 24.375H38.9063C39.0306 24.375 39.1498 24.4244 39.2377 24.5123C39.3256 24.6002 39.375 24.7194 39.375 24.8438C39.375 24.9681 39.3256 25.0873 39.2377 25.1752C39.1498 25.2631 39.0306 25.3125 38.9063 25.3125Z" fill="#FF5C00"/>
<path d="M28.0558 42.2109L28.923 42.841L28.5917 43.8606C28.5687 43.9312 28.5687 44.0073 28.5916 44.0779C28.6145 44.1486 28.6592 44.2102 28.7193 44.2538C28.7794 44.2975 28.8518 44.321 28.9261 44.321C29.0003 44.321 29.0727 44.2974 29.1328 44.2537L29.9999 43.6236L30.8671 44.2537C30.9272 44.2974 30.9996 44.321 31.0738 44.321C31.1481 44.321 31.2205 44.2975 31.2806 44.2538C31.3406 44.2102 31.3854 44.1486 31.4083 44.0779C31.4312 44.0073 31.4312 43.9312 31.4082 43.8606L31.0769 42.841L31.9441 42.2109C32.0041 42.1673 32.0488 42.1058 32.0718 42.0352C32.0947 41.9646 32.0947 41.8885 32.0718 41.8179C32.0489 41.7473 32.0042 41.6858 31.9441 41.6421C31.8841 41.5985 31.8117 41.575 31.7375 41.575H30.6656L30.3343 40.5554C30.3113 40.4848 30.2666 40.4233 30.2066 40.3797C30.1465 40.3361 30.0742 40.3126 29.9999 40.3126C29.9257 40.3126 29.8534 40.3361 29.7933 40.3797C29.7333 40.4233 29.6886 40.4848 29.6656 40.5554L29.3343 41.575H28.2624C28.1882 41.575 28.1158 41.5985 28.0558 41.6421C27.9957 41.6858 27.951 41.7473 27.9281 41.8179C27.9052 41.8885 27.9052 41.9646 27.9281 42.0352C27.951 42.1058 27.9957 42.1673 28.0558 42.2109Z" fill="#FF5C00"/>
<path d="M22.6455 42.8887L23.5127 43.5188L23.1814 44.5383C23.1584 44.6089 23.1584 44.685 23.1813 44.7557C23.2042 44.8263 23.249 44.8879 23.309 44.9315C23.3691 44.9752 23.4415 44.9987 23.5158 44.9987C23.59 44.9987 23.6624 44.9752 23.7225 44.9315L24.5897 44.3014L25.4568 44.9315C25.5169 44.9752 25.5893 44.9987 25.6635 44.9987C25.7378 44.9987 25.8102 44.9752 25.8703 44.9315C25.9304 44.8879 25.9751 44.8263 25.998 44.7557C26.0209 44.685 26.0209 44.6089 25.9979 44.5383L25.6666 43.5188L26.5338 42.8887C26.5939 42.845 26.6386 42.7835 26.6615 42.7129C26.6844 42.6423 26.6844 42.5662 26.6615 42.4956C26.6386 42.425 26.5939 42.3635 26.5338 42.3198C26.4738 42.2762 26.4014 42.2527 26.3272 42.2527H25.2552L24.924 41.2332C24.9011 41.1625 24.8564 41.101 24.7963 41.0573C24.7362 41.0136 24.6639 40.9901 24.5896 40.9901C24.5153 40.9901 24.443 41.0136 24.3829 41.0573C24.3228 41.101 24.2781 41.1625 24.2552 41.2332L23.924 42.2527H22.8521C22.7779 42.2527 22.7056 42.2762 22.6455 42.3198C22.5854 42.3635 22.5407 42.425 22.5178 42.4956C22.4949 42.5662 22.4949 42.6423 22.5178 42.7129C22.5408 42.7835 22.5855 42.845 22.6455 42.8887Z" fill="#FF5C00"/>
<path d="M33.466 42.8887L34.3331 43.5188L34.0019 44.5383C33.9789 44.6089 33.9788 44.685 34.0018 44.7557C34.0247 44.8263 34.0694 44.8879 34.1295 44.9315C34.1896 44.9752 34.2619 44.9987 34.3362 44.9987C34.4105 44.9987 34.4828 44.9752 34.5429 44.9315L35.4101 44.3014L36.2773 44.9315C36.3374 44.9752 36.4097 44.9987 36.484 44.9987C36.5583 44.9987 36.6306 44.9752 36.6907 44.9315C36.7508 44.8879 36.7955 44.8263 36.8184 44.7557C36.8414 44.685 36.8413 44.6089 36.8183 44.5383L36.487 43.5188L37.3542 42.8887C37.4143 42.845 37.459 42.7835 37.4819 42.7129C37.5049 42.6422 37.5049 42.5662 37.4819 42.4956C37.459 42.425 37.4143 42.3634 37.3542 42.3198C37.2941 42.2762 37.2218 42.2527 37.1475 42.2527H36.0756L35.7444 41.2332C35.7215 41.1625 35.6768 41.101 35.6167 41.0573C35.5567 41.0136 35.4843 40.9901 35.41 40.9901C35.3358 40.9901 35.2634 41.0136 35.2033 41.0573C35.1433 41.101 35.0986 41.1625 35.0756 41.2332L34.7445 42.2527H33.6726C33.5983 42.2527 33.526 42.2762 33.4659 42.3198C33.4059 42.3635 33.3612 42.425 33.3382 42.4956C33.3153 42.5662 33.3153 42.6423 33.3383 42.7129C33.3612 42.7835 33.4059 42.845 33.466 42.8887Z" fill="#FF5C00"/>
</svg>
